<svg width="800px" height="800px" viewBox="0 0 24 24" fill="none" xmlns="http://www.w3.org/2000/svg">
<path d="M20 12H4C2.89543 12 2 12.8954 2 14V19C2 20.1046 2.89543 21 4 21H20C21.1046 21 22 20.1046 22 19V14C22 12.8954 21.1046 12 20 12Z" stroke="#000000" stroke-width="2" stroke-linecap="round" stroke-linejoin="round"/>
<path d="M18 12V10C18 7.23858 15.7614 5 13 5H7C4.23858 5 2 7.23858 2 10V12" stroke="#000000" stroke-width="2" stroke-linecap="round" stroke-linejoin="round"/>
<path d="M13 5C13 4.44772 12.5523 4 12 4H10C9.44772 4 9 4.44772 9 5C9 5.55228 9.44772 6 10 6H12C12.5523 6 13 5.55228 13 5Z" stroke="#000000" stroke-width="2" stroke-linecap="round" stroke-linejoin="round"/>
</svg>